<svg width="1860" height="551" viewBox="0 0 1860 551" fill="none" xmlns="http://www.w3.org/2000/svg">
<g clip-path="url(#clip0_10_23)">
<rect width="1860" height="551" fill="white"/>
<path d="M499 75L700.784 141.25V273.75L499 340L297.216 273.75V141.25L499 75Z" fill="#4752A1"/>
<path d="M256 75L457.784 141.25V273.75L256 340L54.2161 273.75V141.25L256 75Z" fill="#4752A1"/>
<path d="M377 226L578.784 291V421L377 486L175.216 421V291L377 226Z" fill="#4752A1"/>
<path d="M377 116L578.784 181V311L377 376L175.216 311V181L377 116Z" fill="white"/>
<path d="M810.7 252L755.26 112.98L782.14 109.2L822.67 214.83L861.94 109.2H889.45L833.8 252H810.7ZM917.457 105C921.797 105 925.437 106.47 928.377 109.41C931.457 112.35 932.997 115.99 932.997 120.33C932.997 124.67 931.457 128.31 928.377 131.25C925.437 134.19 921.797 135.66 917.457 135.66C913.257 135.66 909.687 134.19 906.747 131.25C903.807 128.31 902.337 124.67 902.337 120.33C902.337 115.99 903.807 112.35 906.747 109.41C909.687 106.47 913.257 105 917.457 105ZM931.107 150.15V252H903.807V150.15H931.107ZM1033.35 165.69L984.208 229.95H1033.35L1035.45 252H951.448L947.878 237.51L996.388 172.62H955.648L950.398 150.15H1031.88L1033.35 165.69ZM1114.87 249.9C1112.63 251.72 1109.41 253.19 1105.21 254.31C1101.15 255.57 1097.51 256.2 1094.29 256.2C1081.69 256.2 1071.75 253.05 1064.47 246.75C1057.33 240.31 1053.76 231.21 1053.76 219.45V171.36H1040.11V150.36H1053.76V126.21L1080.85 121.38V150.36H1099.33L1107.73 171.36H1080.85V214.62C1080.85 219.94 1082.11 224.35 1084.63 227.85C1087.15 231.21 1090.86 232.89 1095.76 232.89C1097.58 232.89 1099.4 232.68 1101.22 232.26C1103.04 231.84 1104.93 231.14 1106.89 230.16L1114.87 249.9ZM1182.72 254.52C1165.08 254.52 1151.15 249.69 1140.93 240.03C1130.85 230.37 1125.81 217.42 1125.81 201.18C1125.81 184.94 1130.36 171.92 1139.46 162.12C1148.7 152.32 1161.23 147.42 1177.05 147.42C1193.01 147.42 1204.7 152.74 1212.12 163.38C1219.68 173.88 1223.46 186.34 1223.46 200.76V209.16H1154.79C1156.05 215.88 1159.13 221.27 1164.03 225.33C1168.93 229.25 1175.37 231.21 1183.35 231.21C1187.97 231.21 1192.1 230.65 1195.74 229.53C1199.52 228.27 1203.86 226.52 1208.76 224.28L1216.74 244.02C1211.98 247.66 1206.17 250.32 1199.31 252C1192.59 253.68 1187.06 254.52 1182.72 254.52ZM1197.63 190.89C1196.23 184.03 1193.71 178.99 1190.07 175.77C1186.43 172.41 1181.88 170.73 1176.42 170.73C1170.82 170.73 1166.13 172.48 1162.35 175.98C1158.57 179.34 1156.12 184.31 1155 190.89H1197.63ZM1292.95 170.73C1285.25 170.73 1279.23 173.67 1274.89 179.55C1270.55 185.29 1268.38 192.5 1268.38 201.18C1268.38 210 1270.55 217.21 1274.89 222.81C1279.23 228.41 1285.25 231.21 1292.95 231.21C1297.71 231.21 1301.98 230.65 1305.76 229.53C1309.68 228.27 1314.09 226.52 1318.99 224.28L1326.76 244.02C1322 247.66 1316.19 250.32 1309.33 252C1302.61 253.68 1297.08 254.52 1292.74 254.52C1276.22 254.52 1263.34 249.69 1254.1 240.03C1244.86 230.37 1240.24 217.42 1240.24 201.18C1240.24 184.94 1244.86 171.92 1254.1 162.12C1263.34 152.32 1276.22 147.42 1292.74 147.42C1297.08 147.42 1302.54 148.33 1309.12 150.15C1315.84 151.97 1321.72 154.63 1326.76 158.13L1318.99 177.66C1314.09 175.42 1309.68 173.74 1305.76 172.62C1301.98 171.36 1297.71 170.73 1292.95 170.73ZM1375.13 156.87C1379.61 153.37 1384.72 150.71 1390.46 148.89C1396.34 147.07 1401.59 146.16 1406.21 146.16C1420.07 146.16 1429.87 150.22 1435.61 158.34C1441.49 166.46 1444.43 176.4 1444.43 188.16V252H1417.13V189.42C1417.13 182.98 1415.59 178.08 1412.51 174.72C1409.43 171.22 1404.88 169.47 1398.86 169.47C1394.94 169.47 1390.88 170.52 1386.68 172.62C1382.48 174.58 1378.63 176.89 1375.13 179.55V252H1348.04V106.05L1375.13 103.74V156.87Z" fill="#4752A1"/>
<path d="M771.43 407.5C775.77 409.74 781.3 411.98 788.02 414.22C794.74 416.46 801.11 417.58 807.13 417.58C815.67 417.58 822.04 416.25 826.24 413.59C830.58 410.93 832.75 407.08 832.75 402.04C832.75 397.28 829.88 393.08 824.14 389.44C818.54 385.66 812.31 382.02 805.45 378.52C795.37 373.34 785.71 367.32 776.47 360.46C767.37 353.46 762.82 343.66 762.82 331.06C762.82 320.28 767.09 311.25 775.63 303.97C784.17 296.55 796.28 292.84 811.96 292.84C819.1 292.84 826.24 293.96 833.38 296.2C840.52 298.44 846.82 300.89 852.28 303.55L843.25 325.39C838.91 323.29 834.22 321.33 829.18 319.51C824.14 317.55 818.54 316.57 812.38 316.57C806.36 316.57 801.25 317.76 797.05 320.14C792.99 322.52 790.96 326.16 790.96 331.06C790.96 336.24 793.41 340.58 798.31 344.08C803.35 347.44 809.37 350.87 816.37 354.37L817.84 355.21C827.92 360.39 837.58 366.55 846.82 373.69C856.2 380.69 860.89 390.28 860.89 402.46C860.89 413.8 856.27 423.18 847.03 430.6C837.93 438.02 824.77 441.73 807.55 441.73C801.53 441.73 793.76 440.4 784.24 437.74C774.86 435.08 768.56 432.35 765.34 429.55L771.43 407.5ZM902.629 443.83L907.459 431.86L871.129 340.93L899.269 337.15L922.789 398.89L945.049 337.15H973.819L928.249 452.44C925.029 460.7 919.359 467.77 911.239 473.65C903.119 479.53 894.579 483.52 885.619 485.62L875.959 463.15C880.859 461.05 886.039 458.46 891.499 455.38C897.099 452.44 900.809 448.59 902.629 443.83ZM1047.74 364.66C1042.84 362.42 1038.29 360.74 1034.09 359.62C1029.89 358.36 1025.41 357.73 1020.65 357.73C1017.15 357.73 1014.42 358.43 1012.46 359.83C1010.64 361.09 1009.73 362.91 1009.73 365.29C1009.73 366.97 1010.85 368.58 1013.09 370.12C1015.47 371.66 1019.25 373.34 1024.43 375.16C1032.97 378.24 1040.88 382.58 1048.16 388.18C1055.44 393.64 1059.08 400.78 1059.08 409.6C1059.08 419.68 1055.44 427.52 1048.16 433.12C1041.02 438.72 1030.52 441.52 1016.66 441.52C1012.32 441.52 1006.51 440.68 999.229 439C992.089 437.32 986.139 434.66 981.379 431.02L989.569 411.28C994.469 413.52 999.159 415.27 1003.64 416.53C1008.26 417.65 1012.46 418.21 1016.24 418.21C1021.28 418.21 1025.13 417.51 1027.79 416.11C1030.45 414.71 1031.78 412.89 1031.78 410.65C1031.78 407.85 1030.45 405.33 1027.79 403.09C1025.13 400.85 1020.93 398.82 1015.19 397C1007.07 394.34 999.369 390.56 992.089 385.66C984.949 380.62 981.379 373.9 981.379 365.5C981.379 355.84 984.949 348.28 992.089 342.82C999.229 337.22 1008.89 334.42 1021.07 334.42C1025.41 334.42 1031.01 335.33 1037.87 337.15C1044.73 338.97 1050.75 341.63 1055.93 345.13L1047.74 364.66ZM1141.53 436.9C1139.29 438.72 1136.07 440.19 1131.87 441.31C1127.81 442.57 1124.17 443.2 1120.95 443.2C1108.35 443.2 1098.41 440.05 1091.13 433.75C1083.99 427.31 1080.42 418.21 1080.42 406.45V358.36H1066.77V337.36H1080.42V313.21L1107.51 308.38V337.36H1125.99L1134.39 358.36H1107.51V401.62C1107.51 406.94 1108.77 411.35 1111.29 414.85C1113.81 418.21 1117.52 419.89 1122.42 419.89C1124.24 419.89 1126.06 419.68 1127.88 419.26C1129.7 418.84 1131.59 418.14 1133.55 417.16L1141.53 436.9ZM1209.38 441.52C1191.74 441.52 1177.81 436.69 1167.59 427.03C1157.51 417.37 1152.47 404.42 1152.47 388.18C1152.47 371.94 1157.02 358.92 1166.12 349.12C1175.36 339.32 1187.89 334.42 1203.71 334.42C1219.67 334.42 1231.36 339.74 1238.78 350.38C1246.34 360.88 1250.12 373.34 1250.12 387.76V396.16H1181.45C1182.71 402.88 1185.79 408.27 1190.69 412.33C1195.59 416.25 1202.03 418.21 1210.01 418.21C1214.63 418.21 1218.76 417.65 1222.4 416.53C1226.18 415.27 1230.52 413.52 1235.42 411.28L1243.4 431.02C1238.64 434.66 1232.83 437.32 1225.97 439C1219.25 440.68 1213.72 441.52 1209.38 441.52ZM1224.29 377.89C1222.89 371.03 1220.37 365.99 1216.73 362.77C1213.09 359.41 1208.54 357.73 1203.08 357.73C1197.48 357.73 1192.79 359.48 1189.01 362.98C1185.23 366.34 1182.78 371.31 1181.66 377.89H1224.29ZM1358.67 349.12C1363.01 344.22 1368.75 340.37 1375.89 337.57C1383.17 334.63 1389.68 333.16 1395.42 333.16C1409.28 333.16 1419.08 337.22 1424.82 345.34C1430.7 353.46 1433.64 363.4 1433.64 375.16V439H1406.13V376.42C1406.13 369.98 1404.59 365.08 1401.51 361.72C1398.43 358.22 1393.95 356.47 1388.07 356.47C1384.15 356.47 1380.02 357.52 1375.68 359.62C1371.34 361.72 1367.42 364.1 1363.92 366.76C1364.06 368.16 1364.2 369.56 1364.34 370.96C1364.48 372.36 1364.55 373.76 1364.55 375.16V439H1337.04V376.42C1337.04 369.98 1335.5 365.08 1332.42 361.72C1329.34 358.22 1324.93 356.47 1319.19 356.47C1315.69 356.47 1312.12 357.24 1308.48 358.78C1304.98 360.18 1301.62 362 1298.4 364.24V439H1271.1V337.15H1285.38L1292.1 346.39C1296.72 342.19 1302.25 338.97 1308.69 336.73C1315.27 334.35 1321.15 333.16 1326.33 333.16C1334.31 333.16 1340.96 334.63 1346.28 337.57C1351.6 340.37 1355.73 344.22 1358.67 349.12ZM1518.39 364.66C1513.49 362.42 1508.94 360.74 1504.74 359.62C1500.54 358.36 1496.06 357.73 1491.3 357.73C1487.8 357.73 1485.07 358.43 1483.11 359.83C1481.29 361.09 1480.38 362.91 1480.38 365.29C1480.38 366.97 1481.5 368.58 1483.74 370.12C1486.12 371.66 1489.9 373.34 1495.08 375.16C1503.62 378.24 1511.53 382.58 1518.81 388.18C1526.09 393.64 1529.73 400.78 1529.73 409.6C1529.73 419.68 1526.09 427.52 1518.81 433.12C1511.67 438.72 1501.17 441.52 1487.31 441.52C1482.97 441.52 1477.16 440.68 1469.88 439C1462.74 437.32 1456.79 434.66 1452.03 431.02L1460.22 411.28C1465.12 413.52 1469.81 415.27 1474.29 416.53C1478.91 417.65 1483.11 418.21 1486.89 418.21C1491.93 418.21 1495.78 417.51 1498.44 416.11C1501.1 414.71 1502.43 412.89 1502.43 410.65C1502.43 407.85 1501.1 405.33 1498.44 403.09C1495.78 400.85 1491.58 398.82 1485.84 397C1477.72 394.34 1470.02 390.56 1462.74 385.66C1455.6 380.62 1452.03 373.9 1452.03 365.5C1452.03 355.84 1455.6 348.28 1462.74 342.82C1469.88 337.22 1479.54 334.42 1491.72 334.42C1496.06 334.42 1501.66 335.33 1508.52 337.15C1515.38 338.97 1521.4 341.63 1526.58 345.13L1518.39 364.66Z" fill="#4752A1"/>
</g>
<defs>
<clipPath id="clip0_10_23">
<rect width="1860" height="551" fill="white"/>
</clipPath>
</defs>
</svg>
