<svg width="1663" height="679" viewBox="0 0 1663 679" fill="none" xmlns="http://www.w3.org/2000/svg">
<path d="M953 28L1154.78 94.25V226.75L953 293L751.216 226.75V94.25L953 28Z" fill="#4752A1"/>
<path d="M710 28L911.784 94.25V226.75L710 293L508.216 226.75V94.25L710 28Z" fill="#4752A1"/>
<path d="M831 179L1032.78 244V374L831 439L629.216 374V244L831 179Z" fill="#4752A1"/>
<path d="M831 69L1032.78 134V264L831 329L629.216 264V134L831 69Z" fill="white"/>
<path d="M251.419 608L206.539 495.46L228.299 492.4L261.109 577.91L292.899 492.4H315.169L270.119 608H251.419ZM337.841 489C341.354 489 344.301 490.19 346.681 492.57C349.174 494.95 350.421 497.897 350.421 501.41C350.421 504.923 349.174 507.87 346.681 510.25C344.301 512.63 341.354 513.82 337.841 513.82C334.441 513.82 331.551 512.63 329.171 510.25C326.791 507.87 325.601 504.923 325.601 501.41C325.601 497.897 326.791 494.95 329.171 492.57C331.551 490.19 334.441 489 337.841 489ZM348.891 525.55V608H326.791V525.55H348.891ZM431.657 538.13L391.877 590.15H431.657L433.357 608H365.357L362.467 596.27L401.737 543.74H368.757L364.507 525.55H430.467L431.657 538.13ZM497.654 606.3C495.841 607.773 493.234 608.963 489.834 609.87C486.548 610.89 483.601 611.4 480.994 611.4C470.794 611.4 462.748 608.85 456.854 603.75C451.074 598.537 448.184 591.17 448.184 581.65V542.72H437.134V525.72H448.184V506.17L470.114 502.26V525.72H485.074L491.874 542.72H470.114V577.74C470.114 582.047 471.134 585.617 473.174 588.45C475.214 591.17 478.218 592.53 482.184 592.53C483.658 592.53 485.131 592.36 486.604 592.02C488.078 591.68 489.608 591.113 491.194 590.32L497.654 606.3ZM552.576 610.04C538.296 610.04 527.02 606.13 518.746 598.31C510.586 590.49 506.506 580.007 506.506 566.86C506.506 553.713 510.19 543.173 517.556 535.24C525.036 527.307 535.18 523.34 547.986 523.34C560.906 523.34 570.37 527.647 576.376 536.26C582.496 544.76 585.556 554.847 585.556 566.52V573.32H529.966C530.986 578.76 533.48 583.123 537.446 586.41C541.413 589.583 546.626 591.17 553.086 591.17C556.826 591.17 560.17 590.717 563.116 589.81C566.176 588.79 569.69 587.373 573.656 585.56L580.116 601.54C576.263 604.487 571.56 606.64 566.006 608C560.566 609.36 556.09 610.04 552.576 610.04ZM564.646 558.53C563.513 552.977 561.473 548.897 558.526 546.29C555.58 543.57 551.896 542.21 547.476 542.21C542.943 542.21 539.146 543.627 536.086 546.46C533.026 549.18 531.043 553.203 530.136 558.53H564.646ZM641.813 542.21C635.58 542.21 630.706 544.59 627.193 549.35C623.68 553.997 621.923 559.833 621.923 566.86C621.923 574 623.68 579.837 627.193 584.37C630.706 588.903 635.58 591.17 641.813 591.17C645.666 591.17 649.123 590.717 652.183 589.81C655.356 588.79 658.926 587.373 662.893 585.56L669.183 601.54C665.33 604.487 660.626 606.64 655.073 608C649.633 609.36 645.156 610.04 641.643 610.04C628.27 610.04 617.843 606.13 610.363 598.31C602.883 590.49 599.143 580.007 599.143 566.86C599.143 553.713 602.883 543.173 610.363 535.24C617.843 527.307 628.27 523.34 641.643 523.34C645.156 523.34 649.576 524.077 654.903 525.55C660.343 527.023 665.103 529.177 669.183 532.01L662.893 547.82C658.926 546.007 655.356 544.647 652.183 543.74C649.123 542.72 645.666 542.21 641.813 542.21ZM708.339 530.99C711.965 528.157 716.102 526.003 720.749 524.53C725.509 523.057 729.759 522.32 733.499 522.32C744.719 522.32 752.652 525.607 757.299 532.18C762.059 538.753 764.439 546.8 764.439 556.32V608H742.339V557.34C742.339 552.127 741.092 548.16 738.599 545.44C736.105 542.607 732.422 541.19 727.549 541.19C724.375 541.19 721.089 542.04 717.689 543.74C714.289 545.327 711.172 547.197 708.339 549.35V608H686.409V489.85L708.339 487.98V530.99ZM828.408 582.5C831.921 584.313 836.398 586.127 841.838 587.94C847.278 589.753 852.435 590.66 857.308 590.66C864.221 590.66 869.378 589.583 872.778 587.43C876.291 585.277 878.048 582.16 878.048 578.08C878.048 574.227 875.725 570.827 871.078 567.88C866.545 564.82 861.501 561.873 855.948 559.04C847.788 554.847 839.968 549.973 832.488 544.42C825.121 538.753 821.438 530.82 821.438 520.62C821.438 511.893 824.895 504.583 831.808 498.69C838.721 492.683 848.525 489.68 861.218 489.68C866.998 489.68 872.778 490.587 878.558 492.4C884.338 494.213 889.438 496.197 893.858 498.35L886.548 516.03C883.035 514.33 879.238 512.743 875.158 511.27C871.078 509.683 866.545 508.89 861.558 508.89C856.685 508.89 852.548 509.853 849.148 511.78C845.861 513.707 844.218 516.653 844.218 520.62C844.218 524.813 846.201 528.327 850.168 531.16C854.248 533.88 859.121 536.657 864.788 539.49L865.978 540.17C874.138 544.363 881.958 549.35 889.438 555.13C897.031 560.797 900.828 568.56 900.828 578.42C900.828 587.6 897.088 595.193 889.608 601.2C882.241 607.207 871.588 610.21 857.648 610.21C852.775 610.21 846.485 609.133 838.778 606.98C831.185 604.827 826.085 602.617 823.478 600.35L828.408 582.5ZM934.617 611.91L938.527 602.22L909.117 528.61L931.897 525.55L950.937 575.53L968.957 525.55H992.247L955.357 618.88C952.75 625.567 948.16 631.29 941.587 636.05C935.013 640.81 928.1 644.04 920.847 645.74L913.027 627.55C916.993 625.85 921.187 623.753 925.607 621.26C930.14 618.88 933.143 615.763 934.617 611.91ZM1052.09 547.82C1048.12 546.007 1044.44 544.647 1041.04 543.74C1037.64 542.72 1034.01 542.21 1030.16 542.21C1027.32 542.21 1025.11 542.777 1023.53 543.91C1022.05 544.93 1021.32 546.403 1021.32 548.33C1021.32 549.69 1022.22 550.993 1024.04 552.24C1025.96 553.487 1029.02 554.847 1033.22 556.32C1040.13 558.813 1046.53 562.327 1052.43 566.86C1058.32 571.28 1061.27 577.06 1061.27 584.2C1061.27 592.36 1058.32 598.707 1052.43 603.24C1046.65 607.773 1038.15 610.04 1026.93 610.04C1023.41 610.04 1018.71 609.36 1012.82 608C1007.04 606.64 1002.22 604.487 998.367 601.54L1005 585.56C1008.96 587.373 1012.76 588.79 1016.39 589.81C1020.13 590.717 1023.53 591.17 1026.59 591.17C1030.67 591.17 1033.78 590.603 1035.94 589.47C1038.09 588.337 1039.17 586.863 1039.17 585.05C1039.17 582.783 1038.09 580.743 1035.94 578.93C1033.78 577.117 1030.38 575.473 1025.74 574C1019.16 571.847 1012.93 568.787 1007.04 564.82C1001.26 560.74 998.367 555.3 998.367 548.5C998.367 540.68 1001.26 534.56 1007.04 530.14C1012.82 525.607 1020.64 523.34 1030.5 523.34C1034.01 523.34 1038.54 524.077 1044.1 525.55C1049.65 527.023 1054.52 529.177 1058.72 532.01L1052.09 547.82ZM1128.02 606.3C1126.2 607.773 1123.6 608.963 1120.2 609.87C1116.91 610.89 1113.96 611.4 1111.36 611.4C1101.16 611.4 1093.11 608.85 1087.22 603.75C1081.44 598.537 1078.55 591.17 1078.55 581.65V542.72H1067.5V525.72H1078.55V506.17L1100.48 502.26V525.72H1115.44L1122.24 542.72H1100.48V577.74C1100.48 582.047 1101.5 585.617 1103.54 588.45C1105.58 591.17 1108.58 592.53 1112.55 592.53C1114.02 592.53 1115.49 592.36 1116.97 592.02C1118.44 591.68 1119.97 591.113 1121.56 590.32L1128.02 606.3ZM1182.94 610.04C1168.66 610.04 1157.38 606.13 1149.11 598.31C1140.95 590.49 1136.87 580.007 1136.87 566.86C1136.87 553.713 1140.55 543.173 1147.92 535.24C1155.4 527.307 1165.54 523.34 1178.35 523.34C1191.27 523.34 1200.73 527.647 1206.74 536.26C1212.86 544.76 1215.92 554.847 1215.92 566.52V573.32H1160.33C1161.35 578.76 1163.84 583.123 1167.81 586.41C1171.77 589.583 1176.99 591.17 1183.45 591.17C1187.19 591.17 1190.53 590.717 1193.48 589.81C1196.54 588.79 1200.05 587.373 1204.02 585.56L1210.48 601.54C1206.62 604.487 1201.92 606.64 1196.37 608C1190.93 609.36 1186.45 610.04 1182.94 610.04ZM1195.01 558.53C1193.87 552.977 1191.83 548.897 1188.89 546.29C1185.94 543.57 1182.26 542.21 1177.84 542.21C1173.3 542.21 1169.51 543.627 1166.45 546.46C1163.39 549.18 1161.4 553.203 1160.5 558.53H1195.01ZM1303.79 535.24C1307.31 531.273 1311.95 528.157 1317.73 525.89C1323.63 523.51 1328.9 522.32 1333.54 522.32C1344.76 522.32 1352.7 525.607 1357.34 532.18C1362.1 538.753 1364.48 546.8 1364.48 556.32V608H1342.21V557.34C1342.21 552.127 1340.97 548.16 1338.47 545.44C1335.98 542.607 1332.35 541.19 1327.59 541.19C1324.42 541.19 1321.08 542.04 1317.56 543.74C1314.05 545.44 1310.88 547.367 1308.04 549.52C1308.16 550.653 1308.27 551.787 1308.38 552.92C1308.5 554.053 1308.55 555.187 1308.55 556.32V608H1286.28V557.34C1286.28 552.127 1285.04 548.16 1282.54 545.44C1280.05 542.607 1276.48 541.19 1271.83 541.19C1269 541.19 1266.11 541.813 1263.16 543.06C1260.33 544.193 1257.61 545.667 1255 547.48V608H1232.9V525.55H1244.46L1249.9 533.03C1253.64 529.63 1258.12 527.023 1263.33 525.21C1268.66 523.283 1273.42 522.32 1277.61 522.32C1284.07 522.32 1289.46 523.51 1293.76 525.89C1298.07 528.157 1301.41 531.273 1303.79 535.24ZM1433.09 547.82C1429.13 546.007 1425.44 544.647 1422.04 543.74C1418.64 542.72 1415.02 542.21 1411.16 542.21C1408.33 542.21 1406.12 542.777 1404.53 543.91C1403.06 544.93 1402.32 546.403 1402.32 548.33C1402.32 549.69 1403.23 550.993 1405.04 552.24C1406.97 553.487 1410.03 554.847 1414.22 556.32C1421.14 558.813 1427.54 562.327 1433.43 566.86C1439.33 571.28 1442.27 577.06 1442.27 584.2C1442.27 592.36 1439.33 598.707 1433.43 603.24C1427.65 607.773 1419.15 610.04 1407.93 610.04C1404.42 610.04 1399.72 609.36 1393.82 608C1388.04 606.64 1383.23 604.487 1379.37 601.54L1386 585.56C1389.97 587.373 1393.77 588.79 1397.39 589.81C1401.13 590.717 1404.53 591.17 1407.59 591.17C1411.67 591.17 1414.79 590.603 1416.94 589.47C1419.1 588.337 1420.17 586.863 1420.17 585.05C1420.17 582.783 1419.1 580.743 1416.94 578.93C1414.79 577.117 1411.39 575.473 1406.74 574C1400.17 571.847 1393.94 568.787 1388.04 564.82C1382.26 560.74 1379.37 555.3 1379.37 548.5C1379.37 540.68 1382.26 534.56 1388.04 530.14C1393.82 525.607 1401.64 523.34 1411.5 523.34C1415.02 523.34 1419.55 524.077 1425.1 525.55C1430.66 527.023 1435.53 529.177 1439.72 532.01L1433.09 547.82Z" fill="#4752A1"/>
</svg>
